#!OML:ASF H:\MichaelJackson\Top Level 1\Subject 1\Session 1\male.ASF
:FULLY-SPECIFIED
:DEGREES
645
root -13.4995 16.8287 -31.8795 -17.7051 56.4269 -15.1464
lowerback 13.6831 -5.28232 3.61568
upperback 5.94022 -6.4208 -1.96134
thorax -1.99018 -3.07092 -3.07656
lowerneck -8.33066 6.47309 4.81317
upperneck -2.57811 8.24182 -0.971018
head 0.825072 4.09876 -0.822793
rclavicle -2.42517e-014 4.6118e-014
rhumerus -46.63 -3.78118 -81.6898
rradius 103.703
rwrist 10.0345
rhand -33.1117 -38.9659
rfingers 7.12502
rthumb -6.32201 -68.8516
lclavicle -2.42517e-014 4.6118e-014
lhumerus -44.0666 -19.0656 91.8431
lradius 71.04
lwrist 10.6221
lhand 9.99354 13.5938
lfingers 7.12502
lthumb 35.1202 40.1217
rfemur -98.527 -13.2825 35.2744
rtibia 89.4895
rfoot 20.2036 33.1895
rtoes -28.4247
lfemur -8.82884 15.684 -15.0242
ltibia 40.5479
lfoot -24.1056 4.11762
ltoes 37.7564
646
root -13.4834 16.8014 -31.81 -17.0434 58.4316 -14.0629
lowerback 13.5216 -5.07951 2.56092
upperback 5.95365 -6.29211 -2.3342
thorax -1.8147 -3.01164 -2.91653
lowerneck -7.75476 6.57184 4.78028
upperneck -3.52316 8.42213 -1.25437
head 0.446522 4.18048 -0.933841
rclavicle 3.65764e-014 1.59028e-015
rhumerus -47.0266 -3.57076 -83.267
rradius 103.705
rwrist 9.29208
rhand -34.9231 -41.6124
rfingers 7.12502
rthumb -8.07052 -71.4383
lclavicle 3.65764e-014 1.59028e-015
lhumerus -44.1297 -18.7052 92.074
lradius 71.9672
lwrist 12.0101
lhand 8.82503 14.366
lfingers 7.12502
lthumb 34.0111 41.1473
rfemur -98.3804 -13.3544 35.6001
rtibia 93.1764
rfoot 15.6509 32.509
rtoes -34.7397
lfemur -8.59886 14.4682 -16.0819
ltibia 40.4355
lfoot -24.0395 3.89678
ltoes 37.2072
647
root -13.4772 16.7974 -31.7483 -16.5986 60.8606 -13.0431
lowerback 13.9869 -4.84343 1.65415
upperback 5.92641 -6.08394 -2.77572
thorax -2.0346 -2.91007 -2.87017
lowerneck -7.58645 6.4829 4.89808
upperneck -4.06674 8.31352 -1.45288
head 0.259975 4.1215 -1.03389
rclavicle -1.31993e-013 -3.18055e-015
rhumerus -47.8718 -4.44609 -85.0214
rradius 103.955
rwrist 9.15928
rhand -35.9923 -43.0339
rfingers 7.12502
rthumb -9.10235 -72.8175
lclavicle -1.31993e-013 -3.18055e-015
lhumerus -44.6821 -18.6134 92.3592
lradius 73.4574
lwrist 13.3053
lhand 6.13454 15.731
lfingers 7.12502
lthumb 31.4515 43.0455
rfemur -97.7309 -14.0455 35.4314
rtibia 96.412
rfoot 19.0211 25.627
rtoes -26.8475
lfemur -8.24654 13.2143 -17.1144
ltibia 40.2587
lfoot -23.7272 3.51305
ltoes 36.0015
648
root -13.4687 16.7912 -31.684 -16.1341 63.3035 -12.1623
lowerback 14.0796 -4.54904 0.341572
upperback 5.92365 -5.85055 -2.81353
thorax -1.94828 -2.80228 -2.21409
lowerneck -6.95202 6.40744 4.73088
upperneck -4.83802 8.26172 -1.92203
head -0.0707681 4.09285 -1.18986
rclavicle 3.97569e-015 4.29375e-014
rhumerus -48.2637 -4.16524 -86.3469
rradius 103.844
rwrist 8.41164
rhand -36.8952 -44.0453
rfingers 7.12502
rthumb -9.97358 -73.789
lclavicle 3.97569e-015 4.29375e-014
lhumerus -45.2117 -18.3363 93.0181
lradius 74.8508
lwrist 14.437
lhand 6.58232 15.7221
lfingers 7.12502
lthumb 31.878 42.9524
rfemur -96.955 -14.8685 35.5274
rtibia 99.2353
rfoot 15.2229 26.1233
rtoes -35.2962
lfemur -8.05408 12.1072 -17.9903
ltibia 40.1629
lfoot -23.4336 2.82135
ltoes 35.1754
649
root -13.4596 16.7968 -31.6199 -15.9975 65.7049 -11.8326
lowerback 14.0163 -4.23349 -0.6919
upperback 5.94398 -5.55069 -2.74913
thorax -1.77613 -2.66096 -1.62882
lowerneck -6.58874 6.30468 4.57588
upperneck -5.35623 8.15075 -2.34687
head -0.281332 4.03937 -1.32315
rclavicle -4.37326e-014 -1.59028e-015
rhumerus -48.5051 -4.20298 -87.5963
rradius 103.677
rwrist 7.28336
rhand -37.2553 -43.323
rfingers 7.12502
rthumb -10.321 -73.0497
lclavicle -4.37326e-014 -1.59028e-015
lhumerus -45.036 -19.6188 93.9094
lradius 74.9083
lwrist 16.6796
lhand 5.39067 15.7491
lfingers 7.12502
lthumb 30.7425 43.1993
rfemur -95.8731 -15.6093 35.4864
rtibia 101.449
rfoot 15.5951 22.8305
rtoes -35.174
lfemur -8.05369 11.3477 -18.4934
ltibia 40.1156
lfoot -23.0723 1.79683
ltoes 34.2752
650
root -13.446 16.8043 -31.5559 -16.5818 67.9949 -12.4667
lowerback 13.8159 -3.90986 -1.33847
upperback 5.94983 -5.18733 -2.55056
thorax -1.57689 -2.48826 -1.13487
lowerneck -6.38216 6.19107 4.44857
upperneck -5.66801 8.0112 -2.75622
head -0.40326 3.97374 -1.4479
rclavicle 1.78906e-014 0
rhumerus -49.0594 -4.51531 -88.7361
rradius 103.726
rwrist 6.35453
rhand -36.8701 -41.7684
rfingers 7.12502
rthumb -9.94927 -71.5133
lclavicle 1.78906e-014 0
lhumerus -44.717 -19.8839 94.6699
lradius 75.1905
lwrist 17.9088
lhand 4.65497 16.3525
lfingers 7.12502
lthumb 30.0408 43.9324
rfemur -94.5426 -16.0911 35.5827
rtibia 103.107
rfoot 14.8241 20.5559
rtoes -37.1161
lfemur -8.3002 10.6917 -18.5257
ltibia 40.2845
lfoot -22.8469 0.28955
ltoes 34.1181
651
root -13.4258 16.8054 -31.491 -17.9168 70.2144 -14.0099
lowerback 13.6057 -3.57042 -1.62305
upperback 5.86431 -4.76365 -2.31655
thorax -1.50488 -2.28319 -0.807172
lowerneck -6.26063 6.06778 4.43033
upperneck -5.7309 7.84578 -3.14516
head -0.431836 3.89401 -1.57718
rclavicle 2.78299e-015 1.59028e-015
rhumerus -48.7544 -5.37382 -88.2972
rradius 103.136
rwrist 9.9418
rhand -29.0098 -41.3954
rfingers 7.12502
rthumb -2.36119 -71.3621
lclavicle 2.78299e-015 1.59028e-015
lhumerus -44.5632 -20.311 95.4112
lradius 75.3535
lwrist 18.6639
lhand 4.16336 16.5196
lfingers 7.12502
lthumb 29.5717 44.1836
rfemur -92.9663 -16.2959 35.5691
rtibia 104.227
rfoot 12.718 20.1266
rtoes -40.5253
lfemur -8.73295 10.2421 -18.2344
ltibia 40.569
lfoot -22.6583 -1.4166
ltoes 33.7481
652
root -13.3989 16.8009 -31.4258 -20.6328 72.2834 -17.0975
lowerback 13.3184 -3.21747 -1.45121
upperback 5.73796 -4.26829 -2.00102
thorax -1.46973 -2.03891 -0.658925
lowerneck -6.08975 5.91477 4.64533
upperneck -5.78837 7.62405 -3.73426
head -0.452283 3.78309 -1.81353
rclavicle 5.32743e-014 -3.18055e-015
rhumerus -47.8406 -5.79446 -87.6812
rradius 102.001
rwrist 13.5078
rhand -19.9651 -39.7822
rfingers 7.12502
rthumb 6.37355 -69.6663
lclavicle 5.32743e-014 -3.18055e-015
lhumerus -44.5091 -20.8894 96.1773
lradius 75.464
lwrist 19.1261
lhand 3.73129 16.7853
lfingers 7.12502
lthumb 29.1591 44.5216
rfemur -91.5041 -16.7349 35.8194
rtibia 104.818
rfoot 13.3415 19.367
rtoes -39.854
lfemur -9.34864 9.8508 -17.54
ltibia 40.9877
lfoot -22.5367 -3.31269
ltoes 34.1794
653
root -13.3695 16.7954 -31.3598 -22.2605 74.7564 -18.8963
lowerback 13.0881 -2.84517 -2.043
upperback 5.65941 -3.83546 -1.8295
thorax -1.37447 -1.83225 -0.221943
lowerneck -5.69627 5.73845 4.91776
upperneck -5.97338 7.37754 -4.31789
head -0.551505 3.66128 -2.07163
rclavicle 2.98177e-014 9.54166e-015
rhumerus -47.6188 -6.34998 -87.0415
rradius 101.617
rwrist 16.9691
rhand -10.3668 -37.2179
rfingers 7.12502
rthumb 15.6304 -66.6064
lclavicle 2.98177e-014 9.54166e-015
lhumerus -44.5105 -21.5285 96.9732
lradius 75.789
lwrist 19.6986
lhand 3.32027 17.7039
lfingers 7.12502
lthumb 28.7665 45.5076
rfemur -89.7382 -17.0483 35.0183
rtibia 104.965
rfoot 11.7169 20.5215
rtoes -41.0752
lfemur -9.91793 9.49583 -17.5801
ltibia 41.452
lfoot -22.4239 -5.33028
ltoes 34.4055
654
root -13.3391 16.8024 -31.2975 -26.95 76.886 -23.9671
lowerback 12.6972 -2.50012 -2.05429
upperback 5.57984 -3.36493 -1.43059
thorax -1.22677 -1.60479 0.117954
lowerneck -5.59539 5.59217 5.07515
upperneck -5.82506 7.17125 -4.73642
head -0.508273 3.55872 -2.24019
rclavicle -1.86858e-014 -1.74931e-014
rhumerus -47.2939 -6.71053 -86.206
rradius 101.55
rwrist 19.5529
rhand 0.540175 -33.6984
rfingers 7.12502
rthumb 26.1077 -61.9238
lclavicle -1.86858e-014 -1.74931e-014
lhumerus -44.5748 -22.2363 97.8752
lradius 76.1232
lwrist 20.0313
lhand 4.60069 16.9214
lfingers 7.12502
lthumb 29.989 44.5106
rfemur -87.7029 -16.9981 34.5295
rtibia 104.529
rfoot 9.45714 22.7741
rtoes -41.7002
lfemur -10.614 9.27693 -16.9214
ltibia 41.8726
lfoot -22.3153 -7.30749
ltoes 34.6958
